# xmcd
#
# Track frame offsets:
#	150
#	13110
#	25542
#	36388
#	45888
#	59948
#	70529
#	83116
#	95751
#	109745
#	125680
#	135518
#	148424
#	160813
#	173827
#	186504
#	195263
#	205218
#	218303
#	229722
#
# Disc length: 3226 seconds
#
# Revision: 1
# Processed by: cddbd v1.5.2PL0 Copyright (c) Steve Scherf et al.
# Submitted via: audiograbber 1.83.01
#
DISCID=180c9814
DTITLE=James Brown - The Absolutly Essental Collection Disc 3
DYEAR=2016
DGENRE=Rhythm and Blues
TTITLE0=Think
TTITLE1=I Don't Mind
TTITLE2=If You Want Me
TTITLE3=Love Don't Love  Nobody
TTITLE4=Baby, You're Right 
TTITLE5=I'll Never, Never Let You Go
TTITLE6=Just You and Me, Darling
TTITLE7=I Love You, Yes I Do
TTITLE8=Lost Someone
TTITLE9=Night Train
TTITLE10=Why Does Everything Happen To Me?
TTITLE11=Shout and Shimmy
TTITLE12=Come On Home
TTITLE13=Mashed Potatoes U.S.A.
TTITLE14=You Don't Have To Go
TTITLE15=Dancing Little Thing
TTITLE16=Tell Me What You're Gonna Do
TTITLE17=Three Hearts In A Tangle
TTITLE18=I've Got Money
TTITLE19=Sticky
EXTD=
EXTT0=
EXTT1=
EXTT2=
EXTT3=
EXTT4=
EXTT5=
EXTT6=
EXTT7=
EXTT8=
EXTT9=
EXTT10=
EXTT11=
EXTT12=
EXTT13=
EXTT14=
EXTT15=
EXTT16=
EXTT17=
EXTT18=
EXTT19=
PLAYORDER=
